<?xml version="1.0" encoding="UTF-8" standalone="no"?>
<svg width="29.85099983215332mm" height="29.96999931335448mm" viewBox="-12.85099983215332 19.030000686645504 29.85099983215332 29.96999931335448" version="1.1" id="svg888" xmlns="http://www.w3.org/2000/svg" xmlns:svg="http://www.w3.org/2000/svg" xmlns:rdf="http://www.w3.org/1999/02/22-rdf-syntax-ns#" xmlns:cc="http://creativecommons.org/ns#" xmlns:dc="http://purl.org/dc/elements/1.1/">
  <defs id="defs892"/>
  <title id="title882">bgr</title>
  <desc id="desc884">Broken Gadgets R&D</desc>
  <path d="M 8.515838623046875 23.823709487915036 L 8.192000389099121 24.20744323730468 L 6.656448841094971 26.027000427246087 L 5.978425979614258 26.830425262451165 L 5.768466472625732 27.079217910766594 L 4.4730000495910645 26.419000625610344 L 2.8446922302246094 26.16089439392089 L 2 26.027000427246087 L -1.9006582467834612e-14 26.344024658203118 L -0.4729999899864197 26.419000625610344 L -2.659745931625366 27.533447265624993 L -2.7039999961853027 27.555999755859368 L -4.473999977111816 29.32600021362304 L -4.667896747589111 29.706460952758782 L -5.611000061035156 31.55699920654296 L -5.802958011627197 32.76800155639648 L -6.002999782562256 34.02999877929687 L -5.7935919761657715 35.35108566284179 L -5.611000061035156 36.502998352050774 L -4.807679653167725 38.07926177978515 L -4.473999977111816 38.73400115966796 L -2.7039999961853027 40.50400161743163 L -1.8092453479766846 40.95999908447265 L -0.4729999899864197 41.640998840332024 L 0 41.7157859802246 L 2 42.03200149536132 L 2.869462490081787 41.89453124999999 L 4.4730000495910645 41.640998840332024 L 6.703999996185303 40.50400161743163 L 8.192000389099121 39.015998840332024 L 8.473999977111816 38.73400115966796 L 9.484349250793457 36.75151062011718 L 9.485682487487793 36.74889373779296 L 9.611000061035156 36.502998352050774 L 9.688095092773438 36.01663208007812 L 8.192000389099121 35.98756027221679 L 1.215999960899353 35.85200119018554 L 1.264069676399231 32.76800155639648 L 1.2669999599456787 32.58000183105468 L 8.192000389099121 32.71456909179687 L 8.395990371704102 32.71853256225585 L 9.799439430236816 32.745803833007805 L 9.79725170135498 32.73199844360351 L 10.003000259399414 32.73199844360351 L 14.015864372253418 32.73199844360351 L 14.128173828125 32.76800155639648 L 16 33.36800003051757 L 16 34.66199874877929 L 14.942094802856445 35.000904083251946 L 14.53600025177002 35.13100051879882 L 13.420000076293945 35.48899841308593 L 13.305000305175781 36.10499954223632 L 13.182000160217285 36.761001586914055 L 13.18265438079834 36.76034545898437 L 13.182462692260742 36.76137542724609 L 15.288999557495117 38.46400070190429 L 14.821999549865723 39.669998168945305 L 12.663450241088867 39.54147720336913 L 12.118000030517578 39.5089988708496 L 11.437000274658203 40.60900115966796 L 11.63848876953125 40.95999908447265 L 12.78600025177002 42.958999633789055 L 11.913999557495117 43.91500091552734 L 9.449999809265137 42.78799819946288 L 8.418000221252441 43.56700134277343 L 8.82800006866455 46.24599838256835 L 8.192000389099121 46.56235122680663 L 7.670000076293945 46.8219985961914 L 6.862564563751221 45.993213653564446 L 5.7789998054504395 44.88100051879882 L 4.534999847412109 45.235000610351555 L 4.417118549346924 45.76727676391601 L 3.9489998817443848 47.88100051879882 L 2.6610000133514404 47.999999999999986 L 1.600000023841858 45.506999969482415 L 0.31200000643730164 45.38800048828124 L 0 45.85641479492187 L -1.190000057220459 47.64300155639648 L -2.434000015258789 47.28900146484374 L -2.5239999294281006 44.581001281738274 L -3.681999921798706 44.00500106811523 L -5.896999835968018 45.56499862670898 L -6.928999900817871 44.785999298095696 L -6.214924335479736 42.745098114013665 L -6.033999919891357 42.22800064086913 L -6.906000137329102 41.27199935913085 L -8.418754577636719 41.64889526367187 L -9.53499984741211 41.92699813842773 L -10.133661270141602 40.95999908447265 L -10.215999603271484 40.82699966430663 L -8.458000183105469 38.765998840332024 L -8.925000190734863 37.56000137329101 L -9.467000007629395 37.491645812988274 L -11.61299991607666 37.22100067138671 L -11.85099983215332 35.94900131225585 L -9.467000007629395 34.66199874877929 L -9.467000007629395 33.36800003051757 L -10.578421592712402 32.76800155639648 L -11.790888786315918 32.113452911376946 L -11.85099983215332 32.081001281738274 L -11.61299991607666 30.809000015258782 L -10.469513893127441 30.66478729248046 L -8.925000190734863 30.469999313354485 L -8.458000183105469 29.263999938964837 L -8.81260871887207 28.84827232360839 L -10.215999603271484 27.202999114990227 L -9.53499984741211 26.103000640869134 L -6.906000137329102 26.75799942016601 L -6.033999919891357 25.80200004577636 L -6.214924335479736 25.284900665283196 L -6.928999900817871 23.24399948120117 L -5.896999835968018 22.465000152587887 L -3.681999921798706 24.024999618530266 L -2.5239999294281006 23.448999404907223 L -2.434000015258789 20.740999221801754 L -1.190000057220459 20.38699913024902 L 0 22.173583984374996 L 0.31200000643730164 22.642000198364254 L 1.600000023841858 22.523000717163082 L 1.8138004541397095 22.02063941955566 L 2.6610000133514404 20.030000686645504 L 3.9489998817443848 20.149000167846676 L 4.534999847412109 22.79500007629394 L 5.7789998054504395 23.149000167846676 L 7.670000076293945 21.208000183105465 L 8.192000389099121 21.46764755249023 L 8.82800006866455 21.784000396728512 L 8.515838623046875 23.823709487915036 z" fill="none" stroke="rgb(255,0,0)" stroke-width="0.001mm" id="path886" style="fill:#7b528d;fill-opacity:1;stroke:none"/>
  <metadata id="metadata1085">
    <rdf:RDF>
      <cc:Work rdf:about="">
        <dc:title>bgr</dc:title>
      </cc:Work>
    </rdf:RDF>
  </metadata>
</svg>